<?xml version="1.0" encoding="us-ascii" standalone="no"?><svg xmlns="http://www.w3.org/2000/svg" xmlns:xlink="http://www.w3.org/1999/xlink" contentStyleType="text/css" height="575px" preserveAspectRatio="none" style="width:489px;height:575px;background:#FFFFFF;" version="1.1" viewBox="0 0 489 575" width="489px" zoomAndPan="magnify"><defs/><g><ellipse cx="248" cy="16" fill="#222222" rx="10" ry="10" style="stroke:#222222;stroke-width:1.0;"/><g id="Almacen"><rect fill="#F1F1F1" height="50" rx="12.5" ry="12.5" style="stroke:#181818;stroke-width:0.5;" width="82" x="207" y="103"/><line style="stroke:#181818;stroke-width:0.5;" x1="207" x2="289" y1="129.2969" y2="129.2969"/><text fill="#000000" font-family="sans-serif" font-size="14" lengthAdjust="spacing" textLength="62" x="217" y="120.9951">Almacen</text></g><g id="ModificarStock"><rect fill="#F1F1F1" height="50" rx="12.5" ry="12.5" style="stroke:#181818;stroke-width:0.5;" width="128" x="184" y="214"/><line style="stroke:#181818;stroke-width:0.5;" x1="184" x2="312" y1="240.2969" y2="240.2969"/><text fill="#000000" font-family="sans-serif" font-size="14" lengthAdjust="spacing" textLength="108" x="194" y="231.9951">ModificarStock</text></g><g id="AgregarProducto"><rect fill="#F1F1F1" height="50" rx="12.5" ry="12.5" style="stroke:#181818;stroke-width:0.5;" width="142" x="7" y="325"/><line style="stroke:#181818;stroke-width:0.5;" x1="7" x2="149" y1="351.2969" y2="351.2969"/><text fill="#000000" font-family="sans-serif" font-size="14" lengthAdjust="spacing" textLength="122" x="17" y="342.9951">AgregarProducto</text></g><g id="EditarProducto"><rect fill="#F1F1F1" height="50" rx="12.5" ry="12.5" style="stroke:#181818;stroke-width:0.5;" width="128" x="184" y="325"/><line style="stroke:#181818;stroke-width:0.5;" x1="184" x2="312" y1="351.2969" y2="351.2969"/><text fill="#000000" font-family="sans-serif" font-size="14" lengthAdjust="spacing" textLength="108" x="194" y="342.9951">EditarProducto</text></g><g id="RetirarProducto"><rect fill="#F1F1F1" height="50" rx="12.5" ry="12.5" style="stroke:#181818;stroke-width:0.5;" width="135" x="347.5" y="325"/><line style="stroke:#181818;stroke-width:0.5;" x1="347.5" x2="482.5" y1="351.2969" y2="351.2969"/><text fill="#000000" font-family="sans-serif" font-size="14" lengthAdjust="spacing" textLength="115" x="357.5" y="342.9951">RetirarProducto</text></g><g id="GuardarCambios"><rect fill="#F1F1F1" height="50" rx="12.5" ry="12.5" style="stroke:#181818;stroke-width:0.5;" width="138" x="179" y="436"/><line style="stroke:#181818;stroke-width:0.5;" x1="179" x2="317" y1="462.2969" y2="462.2969"/><text fill="#000000" font-family="sans-serif" font-size="14" lengthAdjust="spacing" textLength="118" x="189" y="453.9951">GuardarCambios</text></g><ellipse cx="248" cy="558" fill="none" rx="11" ry="11" style="stroke:#222222;stroke-width:1.0;"/><ellipse cx="248" cy="558" fill="#222222" rx="6" ry="6" style="stroke:#222222;stroke-width:1.0;"/><!--link *start* to Almacen--><g id="link_*start*_Almacen"><path d="M248,26.002 C248,42.627 248,72.655 248,96.873 " fill="none" id="*start*-to-Almacen" style="stroke:#181818;stroke-width:1.0;"/><polygon fill="#181818" points="248,102.873,252,93.873,248,97.873,244,93.873,248,102.873" style="stroke:#181818;stroke-width:1.0;"/><text fill="#000000" font-family="sans-serif" font-size="13" lengthAdjust="spacing" textLength="35" x="249" y="69.0669">Crear</text></g><!--link Almacen to ModificarStock--><g id="link_Almacen_ModificarStock"><path d="M248,153.191 C248,171.254 248,189.83 248,207.877 " fill="none" id="Almacen-to-ModificarStock" style="stroke:#181818;stroke-width:1.0;"/><polygon fill="#181818" points="248,213.877,252,204.877,248,208.877,244,204.877,248,213.877" style="stroke:#181818;stroke-width:1.0;"/></g><!--link ModificarStock to AgregarProducto--><g id="link_ModificarStock_AgregarProducto"><path d="M210.271,264.191 C182.1,282.254 148.8209,303.5915 120.6739,321.6385 " fill="none" id="ModificarStock-to-AgregarProducto" style="stroke:#181818;stroke-width:1.0;"/><polygon fill="#181818" points="115.623,324.877,125.3584,323.3865,119.8321,322.1782,121.0404,316.6519,115.623,324.877" style="stroke:#181818;stroke-width:1.0;"/></g><!--link ModificarStock to EditarProducto--><g id="link_ModificarStock_EditarProducto"><path d="M248,264.191 C248,282.254 248,300.83 248,318.877 " fill="none" id="ModificarStock-to-EditarProducto" style="stroke:#181818;stroke-width:1.0;"/><polygon fill="#181818" points="248,324.877,252,315.877,248,319.877,244,315.877,248,324.877" style="stroke:#181818;stroke-width:1.0;"/></g><!--link ModificarStock to RetirarProducto--><g id="link_ModificarStock_RetirarProducto"><path d="M285.063,264.191 C312.737,282.254 345.3665,303.5506 373.0165,321.5976 " fill="none" id="ModificarStock-to-RetirarProducto" style="stroke:#181818;stroke-width:1.0;"/><polygon fill="#181818" points="378.041,324.877,372.6906,316.6082,373.8539,322.1441,368.318,323.3075,378.041,324.877" style="stroke:#181818;stroke-width:1.0;"/></g><!--link AgregarProducto to GuardarCambios--><g id="link_AgregarProducto_GuardarCambios"><path d="M115.729,375.191 C143.9,393.254 177.1791,414.5915 205.3261,432.6385 " fill="none" id="AgregarProducto-to-GuardarCambios" style="stroke:#181818;stroke-width:1.0;"/><polygon fill="#181818" points="210.377,435.877,204.9596,427.6519,206.1679,433.1782,200.6416,434.3865,210.377,435.877" style="stroke:#181818;stroke-width:1.0;"/></g><!--link EditarProducto to GuardarCambios--><g id="link_EditarProducto_GuardarCambios"><path d="M248,375.191 C248,393.254 248,411.83 248,429.877 " fill="none" id="EditarProducto-to-GuardarCambios" style="stroke:#181818;stroke-width:1.0;"/><polygon fill="#181818" points="248,435.877,252,426.877,248,430.877,244,426.877,248,435.877" style="stroke:#181818;stroke-width:1.0;"/></g><!--link RetirarProducto to GuardarCambios--><g id="link_RetirarProducto_GuardarCambios"><path d="M377.937,375.191 C350.263,393.254 317.6335,414.5506 289.9835,432.5976 " fill="none" id="RetirarProducto-to-GuardarCambios" style="stroke:#181818;stroke-width:1.0;"/><polygon fill="#181818" points="284.959,435.877,294.682,434.3075,289.1461,433.1441,290.3094,427.6082,284.959,435.877" style="stroke:#181818;stroke-width:1.0;"/></g><!--link GuardarCambios to *end*--><g id="link_GuardarCambios_*end*"><path d="M248,486.4649 C248,506.0364 248,526.4921 248,540.7967 " fill="none" id="GuardarCambios-to-*end*" style="stroke:#181818;stroke-width:1.0;"/><polygon fill="#181818" points="248,546.7967,252,537.7967,248,541.7967,244,537.7967,248,546.7967" style="stroke:#181818;stroke-width:1.0;"/></g><!--SRC=[YzQALT3LjLDmpCbDJ4xDKx1IS2vAJIpYWl51ShxvAPbfcSc9HS4b-SdPNAXSYExqejJqnAA0eloKqkIIV6nAN5CoI_2h24ejoIn2Ke9cA5YDUsbYKKfYaNDYRb9cVZ4Ngg7OLA0PYaq9AXUi8beh5W00]--></g></svg>